<?xml version="1.0"?>
<svg xmlns="http://www.w3.org/2000/svg" xmlns:xlink="http://www.w3.org/1999/xlink" xmlns:svgjs="http://svgjs.com/svgjs" version="1.1" width="512" height="512" x="0" y="0" viewBox="0 0 448 448" style="enable-background:new 0 0 512 512" xml:space="preserve"><g>
<path xmlns="http://www.w3.org/2000/svg" d="M8.16,210.048l256-144c4.928-2.784,11.008-2.752,15.904,0.128C284.96,69.056,288,74.304,288,80v62.592l136.16-76.544  c4.96-2.784,11.008-2.72,15.936,0.128C444.992,69.056,448,74.304,448,80v288c0,5.696-3.008,10.944-7.904,13.824  C437.6,383.264,434.784,384,432,384c-2.688,0-5.408-0.672-7.84-2.048L288,305.408V368c0,5.696-3.04,10.944-7.936,13.824  s-10.976,2.912-15.904,0.128l-256-144C3.136,235.104,0,229.792,0,224S3.136,212.896,8.16,210.048z" fill="#6800e4" data-original="#000000" style=""/>
<g xmlns="http://www.w3.org/2000/svg">
</g>
<g xmlns="http://www.w3.org/2000/svg">
</g>
<g xmlns="http://www.w3.org/2000/svg">
</g>
<g xmlns="http://www.w3.org/2000/svg">
</g>
<g xmlns="http://www.w3.org/2000/svg">
</g>
<g xmlns="http://www.w3.org/2000/svg">
</g>
<g xmlns="http://www.w3.org/2000/svg">
</g>
<g xmlns="http://www.w3.org/2000/svg">
</g>
<g xmlns="http://www.w3.org/2000/svg">
</g>
<g xmlns="http://www.w3.org/2000/svg">
</g>
<g xmlns="http://www.w3.org/2000/svg">
</g>
<g xmlns="http://www.w3.org/2000/svg">
</g>
<g xmlns="http://www.w3.org/2000/svg">
</g>
<g xmlns="http://www.w3.org/2000/svg">
</g>
<g xmlns="http://www.w3.org/2000/svg">
</g>
</g></svg>
